# xmcd
#
# Track frame offsets:
#	187
#	74929
#	120767
#	166934
#	214952
#	249224
#
# Disc length: 4072 seconds
#
# Revision: 1
# Processed by: cddbd v1.5.1PL0 Copyright (c) Steve Scherf et al.
# Submitted via: CDex 1.50Beta5
#
DISCID=500fe606
DTITLE=Franck, Chausson, D'Avalos and The Philharmonia - Franck: Symphony In D Minor -  Chausson: Symphony In B Flat Major
DYEAR=1990
DGENRE=Classical
TTITLE0=I: Lento - Allegro Non Troppo
TTITLE1=II: Allegretto
TTITLE2=III: Allegretto Non Troppo
TTITLE3=I: Lent Allegro Vivo
TTITLE4=II:Tr将イs Lent - Un Peu Plus Vite
TTITLE5=III: Anim将ア
EXTD=
EXTT0=
EXTT1=
EXTT2=
EXTT3=
EXTT4=
EXTT5=
PLAYORDER=
